<mxfile host="app.diagrams.net" agent="Mozilla/5.0 (Windows NT 10.0; Win64; x64) AppleWebKit/537.36 (KHTML, like Gecko) Chrome/139.0.0.0 Safari/537.36" version="28.1.1">
  <diagram name="Page-1" id="SjUXCEc0eKae33rcUwk8">
    <mxGraphModel dx="2934" dy="2224" grid="1" gridSize="10" guides="1" tooltips="1" connect="1" arrows="1" fold="1" page="1" pageScale="1" pageWidth="850" pageHeight="1100" math="0" shadow="0">
      <root>
        <mxCell id="0" />
        <mxCell id="1" parent="0" />
        <mxCell id="o9g1dTc8fMl-fND39e6S-85" style="edgeStyle=orthogonalEdgeStyle;rounded=0;orthogonalLoop=1;jettySize=auto;html=1;entryX=0.5;entryY=0;entryDx=0;entryDy=0;labelBackgroundColor=none;strokeColor=#E07A5F;fontColor=default;" edge="1" parent="1" source="o9g1dTc8fMl-fND39e6S-69" target="o9g1dTc8fMl-fND39e6S-51">
          <mxGeometry relative="1" as="geometry" />
        </mxCell>
        <mxCell id="o9g1dTc8fMl-fND39e6S-69" value="" style="shape=rect;html=1;fillColor=#F2CC8F;verticalLabelPosition=bottom;verticalAlignment=top;flipH=0;flipV=0;direction=north;labelBackgroundColor=none;strokeColor=#E07A5F;fontColor=#393C56;" vertex="1" parent="1">
          <mxGeometry x="-190" y="720" width="440" height="10" as="geometry" />
        </mxCell>
        <mxCell id="o9g1dTc8fMl-fND39e6S-15" style="edgeStyle=orthogonalEdgeStyle;rounded=0;orthogonalLoop=1;jettySize=auto;html=1;exitX=0.5;exitY=1;exitDx=0;exitDy=0;entryX=0.5;entryY=0;entryDx=0;entryDy=0;labelBackgroundColor=none;fontColor=default;strokeColor=#E07A5F;" edge="1" parent="1" source="o9g1dTc8fMl-fND39e6S-3" target="o9g1dTc8fMl-fND39e6S-4">
          <mxGeometry relative="1" as="geometry" />
        </mxCell>
        <mxCell id="o9g1dTc8fMl-fND39e6S-3" value="Open App" style="rounded=1;whiteSpace=wrap;html=1;labelBackgroundColor=none;fillColor=#F2CC8F;strokeColor=#E07A5F;fontColor=#393C56;" vertex="1" parent="1">
          <mxGeometry x="60" y="110" width="90" height="40" as="geometry" />
        </mxCell>
        <mxCell id="o9g1dTc8fMl-fND39e6S-17" style="edgeStyle=orthogonalEdgeStyle;rounded=0;orthogonalLoop=1;jettySize=auto;html=1;exitX=0.5;exitY=1;exitDx=0;exitDy=0;entryX=0.5;entryY=0;entryDx=0;entryDy=0;labelBackgroundColor=none;fontColor=default;strokeColor=#E07A5F;" edge="1" parent="1" source="o9g1dTc8fMl-fND39e6S-4" target="o9g1dTc8fMl-fND39e6S-16">
          <mxGeometry relative="1" as="geometry" />
        </mxCell>
        <mxCell id="o9g1dTc8fMl-fND39e6S-4" value="Login or Register" style="rounded=1;whiteSpace=wrap;html=1;labelBackgroundColor=none;fillColor=#F2CC8F;strokeColor=#E07A5F;fontColor=#393C56;" vertex="1" parent="1">
          <mxGeometry x="60" y="170" width="90" height="40" as="geometry" />
        </mxCell>
        <mxCell id="o9g1dTc8fMl-fND39e6S-5" value="" style="html=1;verticalLabelPosition=bottom;labelBackgroundColor=none;verticalAlign=top;shadow=0;dashed=0;strokeWidth=2;shape=mxgraph.ios7.misc.circle;fillColor=none;rounded=1;strokeColor=#E07A5F;fontColor=#393C56;" vertex="1" parent="1">
          <mxGeometry x="420" y="290" width="12" as="geometry" />
        </mxCell>
        <mxCell id="o9g1dTc8fMl-fND39e6S-14" style="edgeStyle=orthogonalEdgeStyle;rounded=0;orthogonalLoop=1;jettySize=auto;html=1;exitX=0.5;exitY=1;exitDx=0;exitDy=0;entryX=0.5;entryY=0;entryDx=0;entryDy=0;labelBackgroundColor=none;fontColor=default;strokeColor=#E07A5F;" edge="1" parent="1" source="o9g1dTc8fMl-fND39e6S-6" target="o9g1dTc8fMl-fND39e6S-3">
          <mxGeometry relative="1" as="geometry" />
        </mxCell>
        <mxCell id="o9g1dTc8fMl-fND39e6S-6" value="" style="ellipse;whiteSpace=wrap;html=1;aspect=fixed;labelBackgroundColor=none;rounded=1;fillColor=#F2CC8F;strokeColor=#E07A5F;fontColor=#393C56;" vertex="1" parent="1">
          <mxGeometry x="95" width="20" height="20" as="geometry" />
        </mxCell>
        <mxCell id="o9g1dTc8fMl-fND39e6S-28" style="edgeStyle=orthogonalEdgeStyle;rounded=0;orthogonalLoop=1;jettySize=auto;html=1;exitX=0.5;exitY=1;exitDx=0;exitDy=0;entryX=0.5;entryY=0;entryDx=0;entryDy=0;labelBackgroundColor=none;strokeColor=#E07A5F;fontColor=default;" edge="1" parent="1" source="o9g1dTc8fMl-fND39e6S-9" target="o9g1dTc8fMl-fND39e6S-26">
          <mxGeometry relative="1" as="geometry" />
        </mxCell>
        <mxCell id="o9g1dTc8fMl-fND39e6S-9" value="Home page" style="rounded=1;whiteSpace=wrap;html=1;labelBackgroundColor=none;fillColor=#F2CC8F;strokeColor=#E07A5F;fontColor=#393C56;" vertex="1" parent="1">
          <mxGeometry x="120" y="300" width="90" height="40" as="geometry" />
        </mxCell>
        <mxCell id="o9g1dTc8fMl-fND39e6S-18" value="not authentic user&lt;div&gt;&lt;br&gt;&lt;/div&gt;" style="edgeStyle=orthogonalEdgeStyle;rounded=0;orthogonalLoop=1;jettySize=auto;html=1;labelBackgroundColor=none;fontColor=default;strokeColor=#E07A5F;" edge="1" parent="1" source="o9g1dTc8fMl-fND39e6S-16">
          <mxGeometry x="-0.0063" y="-32" relative="1" as="geometry">
            <mxPoint x="40" y="300" as="targetPoint" />
            <mxPoint x="22" y="-30" as="offset" />
          </mxGeometry>
        </mxCell>
        <mxCell id="o9g1dTc8fMl-fND39e6S-19" value="authentic user&lt;div&gt;&lt;br&gt;&lt;/div&gt;" style="edgeStyle=orthogonalEdgeStyle;rounded=0;orthogonalLoop=1;jettySize=auto;html=1;exitX=1;exitY=0.5;exitDx=0;exitDy=0;labelBackgroundColor=none;fontColor=default;strokeColor=#E07A5F;" edge="1" parent="1" source="o9g1dTc8fMl-fND39e6S-16">
          <mxGeometry x="-0.1348" y="36" relative="1" as="geometry">
            <mxPoint x="160" y="300" as="targetPoint" />
            <mxPoint x="20" y="6" as="offset" />
          </mxGeometry>
        </mxCell>
        <mxCell id="o9g1dTc8fMl-fND39e6S-16" value="" style="rhombus;whiteSpace=wrap;html=1;labelBackgroundColor=none;fillColor=#F2CC8F;strokeColor=#E07A5F;fontColor=#393C56;" vertex="1" parent="1">
          <mxGeometry x="80" y="230" width="50" height="60" as="geometry" />
        </mxCell>
        <mxCell id="o9g1dTc8fMl-fND39e6S-20" value="Error Message" style="rounded=1;whiteSpace=wrap;html=1;labelBackgroundColor=none;fillColor=#F2CC8F;strokeColor=#E07A5F;fontColor=#393C56;" vertex="1" parent="1">
          <mxGeometry x="5" y="300" width="90" height="40" as="geometry" />
        </mxCell>
        <mxCell id="o9g1dTc8fMl-fND39e6S-29" style="edgeStyle=orthogonalEdgeStyle;rounded=0;orthogonalLoop=1;jettySize=auto;html=1;entryX=0.25;entryY=0;entryDx=0;entryDy=0;labelBackgroundColor=none;strokeColor=#E07A5F;fontColor=default;" edge="1" parent="1" source="o9g1dTc8fMl-fND39e6S-26" target="o9g1dTc8fMl-fND39e6S-42">
          <mxGeometry relative="1" as="geometry">
            <mxPoint x="290" y="450" as="targetPoint" />
          </mxGeometry>
        </mxCell>
        <mxCell id="o9g1dTc8fMl-fND39e6S-30" style="edgeStyle=orthogonalEdgeStyle;rounded=0;orthogonalLoop=1;jettySize=auto;html=1;exitX=0;exitY=0.5;exitDx=0;exitDy=0;entryX=0.5;entryY=0;entryDx=0;entryDy=0;labelBackgroundColor=none;strokeColor=#E07A5F;fontColor=default;" edge="1" parent="1" source="o9g1dTc8fMl-fND39e6S-26" target="o9g1dTc8fMl-fND39e6S-37">
          <mxGeometry relative="1" as="geometry">
            <mxPoint x="40" y="450" as="targetPoint" />
          </mxGeometry>
        </mxCell>
        <mxCell id="o9g1dTc8fMl-fND39e6S-31" style="edgeStyle=orthogonalEdgeStyle;rounded=0;orthogonalLoop=1;jettySize=auto;html=1;exitX=0.5;exitY=1;exitDx=0;exitDy=0;entryX=0.5;entryY=0;entryDx=0;entryDy=0;labelBackgroundColor=none;strokeColor=#E07A5F;fontColor=default;" edge="1" parent="1" source="o9g1dTc8fMl-fND39e6S-26" target="o9g1dTc8fMl-fND39e6S-40">
          <mxGeometry relative="1" as="geometry">
            <mxPoint x="165" y="470" as="targetPoint" />
          </mxGeometry>
        </mxCell>
        <mxCell id="o9g1dTc8fMl-fND39e6S-33" style="edgeStyle=orthogonalEdgeStyle;rounded=0;orthogonalLoop=1;jettySize=auto;html=1;exitX=1;exitY=0.5;exitDx=0;exitDy=0;entryX=0.5;entryY=0;entryDx=0;entryDy=0;labelBackgroundColor=none;strokeColor=#E07A5F;fontColor=default;" edge="1" parent="1" source="o9g1dTc8fMl-fND39e6S-26" target="o9g1dTc8fMl-fND39e6S-41">
          <mxGeometry relative="1" as="geometry">
            <mxPoint x="210" y="450" as="targetPoint" />
          </mxGeometry>
        </mxCell>
        <mxCell id="o9g1dTc8fMl-fND39e6S-39" style="edgeStyle=orthogonalEdgeStyle;rounded=0;orthogonalLoop=1;jettySize=auto;html=1;exitX=0;exitY=0.5;exitDx=0;exitDy=0;entryX=0.25;entryY=0;entryDx=0;entryDy=0;labelBackgroundColor=none;strokeColor=#E07A5F;fontColor=default;" edge="1" parent="1" source="o9g1dTc8fMl-fND39e6S-26" target="o9g1dTc8fMl-fND39e6S-38">
          <mxGeometry relative="1" as="geometry" />
        </mxCell>
        <mxCell id="o9g1dTc8fMl-fND39e6S-43" style="edgeStyle=orthogonalEdgeStyle;rounded=0;orthogonalLoop=1;jettySize=auto;html=1;exitX=1;exitY=0.5;exitDx=0;exitDy=0;labelBackgroundColor=none;strokeColor=#E07A5F;fontColor=default;" edge="1" parent="1" source="o9g1dTc8fMl-fND39e6S-26" target="o9g1dTc8fMl-fND39e6S-44">
          <mxGeometry relative="1" as="geometry">
            <mxPoint x="310" y="550" as="targetPoint" />
          </mxGeometry>
        </mxCell>
        <mxCell id="o9g1dTc8fMl-fND39e6S-26" value="" style="rhombus;whiteSpace=wrap;html=1;labelBackgroundColor=none;fillColor=#F2CC8F;strokeColor=#E07A5F;fontColor=#393C56;" vertex="1" parent="1">
          <mxGeometry x="140" y="360" width="50" height="60" as="geometry" />
        </mxCell>
        <mxCell id="o9g1dTc8fMl-fND39e6S-47" style="edgeStyle=orthogonalEdgeStyle;rounded=0;orthogonalLoop=1;jettySize=auto;html=1;exitX=0.5;exitY=1;exitDx=0;exitDy=0;entryX=0.5;entryY=0;entryDx=0;entryDy=0;labelBackgroundColor=none;strokeColor=#E07A5F;fontColor=default;" edge="1" parent="1" source="o9g1dTc8fMl-fND39e6S-37" target="o9g1dTc8fMl-fND39e6S-46">
          <mxGeometry relative="1" as="geometry" />
        </mxCell>
        <mxCell id="o9g1dTc8fMl-fND39e6S-37" value="Emergency Help" style="rounded=1;whiteSpace=wrap;html=1;labelBackgroundColor=none;fillColor=#F2CC8F;strokeColor=#E07A5F;fontColor=#393C56;" vertex="1" parent="1">
          <mxGeometry x="-5" y="570" width="70" height="30" as="geometry" />
        </mxCell>
        <mxCell id="o9g1dTc8fMl-fND39e6S-118" style="edgeStyle=orthogonalEdgeStyle;rounded=0;orthogonalLoop=1;jettySize=auto;html=1;exitX=0.25;exitY=1;exitDx=0;exitDy=0;entryX=1;entryY=0.75;entryDx=0;entryDy=0;labelBackgroundColor=none;strokeColor=#E07A5F;fontColor=default;" edge="1" parent="1" source="o9g1dTc8fMl-fND39e6S-38" target="o9g1dTc8fMl-fND39e6S-103">
          <mxGeometry relative="1" as="geometry">
            <Array as="points">
              <mxPoint x="90" y="680" />
              <mxPoint x="440" y="680" />
              <mxPoint x="440" y="748" />
            </Array>
          </mxGeometry>
        </mxCell>
        <mxCell id="o9g1dTc8fMl-fND39e6S-123" style="edgeStyle=orthogonalEdgeStyle;rounded=0;orthogonalLoop=1;jettySize=auto;html=1;exitX=0.5;exitY=1;exitDx=0;exitDy=0;entryX=0.5;entryY=1;entryDx=0;entryDy=0;labelBackgroundColor=none;strokeColor=#E07A5F;fontColor=default;" edge="1" parent="1" source="o9g1dTc8fMl-fND39e6S-38" target="o9g1dTc8fMl-fND39e6S-110">
          <mxGeometry relative="1" as="geometry" />
        </mxCell>
        <mxCell id="o9g1dTc8fMl-fND39e6S-38" value="Report" style="rounded=1;whiteSpace=wrap;html=1;labelBackgroundColor=none;fillColor=#F2CC8F;strokeColor=#E07A5F;fontColor=#393C56;" vertex="1" parent="1">
          <mxGeometry x="70" y="510" width="80" height="30" as="geometry" />
        </mxCell>
        <mxCell id="o9g1dTc8fMl-fND39e6S-130" style="edgeStyle=orthogonalEdgeStyle;rounded=0;orthogonalLoop=1;jettySize=auto;html=1;exitX=1;exitY=0.5;exitDx=0;exitDy=0;entryX=0;entryY=1;entryDx=0;entryDy=0;labelBackgroundColor=none;strokeColor=#E07A5F;fontColor=default;" edge="1" parent="1" source="o9g1dTc8fMl-fND39e6S-40" target="o9g1dTc8fMl-fND39e6S-110">
          <mxGeometry relative="1" as="geometry" />
        </mxCell>
        <mxCell id="o9g1dTc8fMl-fND39e6S-40" value="Live tracking" style="rounded=1;whiteSpace=wrap;html=1;labelBackgroundColor=none;fillColor=#F2CC8F;strokeColor=#E07A5F;fontColor=#393C56;" vertex="1" parent="1">
          <mxGeometry x="130" y="580" width="70" height="30" as="geometry" />
        </mxCell>
        <mxCell id="o9g1dTc8fMl-fND39e6S-119" style="edgeStyle=orthogonalEdgeStyle;rounded=0;orthogonalLoop=1;jettySize=auto;html=1;exitX=0.75;exitY=1;exitDx=0;exitDy=0;entryX=0;entryY=0.5;entryDx=0;entryDy=0;labelBackgroundColor=none;strokeColor=#E07A5F;fontColor=default;" edge="1" parent="1" source="o9g1dTc8fMl-fND39e6S-41" target="o9g1dTc8fMl-fND39e6S-110">
          <mxGeometry relative="1" as="geometry" />
        </mxCell>
        <mxCell id="o9g1dTc8fMl-fND39e6S-41" value="SafeZone" style="rounded=1;whiteSpace=wrap;html=1;labelBackgroundColor=none;fillColor=#F2CC8F;strokeColor=#E07A5F;fontColor=#393C56;" vertex="1" parent="1">
          <mxGeometry x="180" y="530" width="80" height="30" as="geometry" />
        </mxCell>
        <mxCell id="o9g1dTc8fMl-fND39e6S-127" style="edgeStyle=orthogonalEdgeStyle;rounded=0;orthogonalLoop=1;jettySize=auto;html=1;exitX=0.5;exitY=1;exitDx=0;exitDy=0;labelBackgroundColor=none;strokeColor=#E07A5F;fontColor=default;" edge="1" parent="1" source="o9g1dTc8fMl-fND39e6S-42">
          <mxGeometry relative="1" as="geometry">
            <mxPoint x="650" y="580" as="targetPoint" />
          </mxGeometry>
        </mxCell>
        <mxCell id="o9g1dTc8fMl-fND39e6S-198" style="edgeStyle=orthogonalEdgeStyle;rounded=0;orthogonalLoop=1;jettySize=auto;html=1;exitX=0;exitY=0.25;exitDx=0;exitDy=0;entryX=1;entryY=0;entryDx=0;entryDy=0;labelBackgroundColor=none;strokeColor=#E07A5F;fontColor=default;" edge="1" parent="1" source="o9g1dTc8fMl-fND39e6S-42" target="o9g1dTc8fMl-fND39e6S-140">
          <mxGeometry relative="1" as="geometry">
            <mxPoint x="-190" y="80" as="targetPoint" />
            <Array as="points">
              <mxPoint x="-50" y="468" />
              <mxPoint x="-50" />
              <mxPoint x="-130" />
            </Array>
          </mxGeometry>
        </mxCell>
        <mxCell id="o9g1dTc8fMl-fND39e6S-42" value="Give FeedBack" style="rounded=1;whiteSpace=wrap;html=1;labelBackgroundColor=none;fillColor=#F2CC8F;strokeColor=#E07A5F;fontColor=#393C56;" vertex="1" parent="1">
          <mxGeometry x="230" y="460" width="70" height="30" as="geometry" />
        </mxCell>
        <mxCell id="o9g1dTc8fMl-fND39e6S-115" style="edgeStyle=orthogonalEdgeStyle;rounded=0;orthogonalLoop=1;jettySize=auto;html=1;exitX=1;exitY=0.25;exitDx=0;exitDy=0;entryX=0.5;entryY=0;entryDx=0;entryDy=0;labelBackgroundColor=none;strokeColor=#E07A5F;fontColor=default;" edge="1" parent="1" source="o9g1dTc8fMl-fND39e6S-44" target="o9g1dTc8fMl-fND39e6S-110">
          <mxGeometry relative="1" as="geometry" />
        </mxCell>
        <mxCell id="o9g1dTc8fMl-fND39e6S-44" value="Profile" style="rounded=1;whiteSpace=wrap;html=1;labelBackgroundColor=none;fillColor=#F2CC8F;strokeColor=#E07A5F;fontColor=#393C56;" vertex="1" parent="1">
          <mxGeometry x="280" y="500" width="80" height="30" as="geometry" />
        </mxCell>
        <mxCell id="o9g1dTc8fMl-fND39e6S-81" style="edgeStyle=orthogonalEdgeStyle;rounded=0;orthogonalLoop=1;jettySize=auto;html=1;exitX=0.5;exitY=1;exitDx=0;exitDy=0;entryX=1;entryY=0.5;entryDx=0;entryDy=0;labelBackgroundColor=none;strokeColor=#E07A5F;fontColor=default;" edge="1" parent="1" source="o9g1dTc8fMl-fND39e6S-46" target="o9g1dTc8fMl-fND39e6S-69">
          <mxGeometry relative="1" as="geometry" />
        </mxCell>
        <mxCell id="o9g1dTc8fMl-fND39e6S-46" value="press" style="rounded=1;whiteSpace=wrap;html=1;labelBackgroundColor=none;fillColor=#F2CC8F;strokeColor=#E07A5F;fontColor=#393C56;" vertex="1" parent="1">
          <mxGeometry x="-10" y="670" width="80" height="30" as="geometry" />
        </mxCell>
        <mxCell id="o9g1dTc8fMl-fND39e6S-51" value="send voice alert" style="rounded=1;whiteSpace=wrap;html=1;labelBackgroundColor=none;fillColor=#F2CC8F;strokeColor=#E07A5F;fontColor=#393C56;" vertex="1" parent="1">
          <mxGeometry x="-130" y="770" width="90" height="30" as="geometry" />
        </mxCell>
        <mxCell id="o9g1dTc8fMl-fND39e6S-52" value="initiate emergency call" style="rounded=1;whiteSpace=wrap;html=1;labelBackgroundColor=none;fillColor=#F2CC8F;strokeColor=#E07A5F;fontColor=#393C56;" vertex="1" parent="1">
          <mxGeometry x="65" y="770" width="90" height="30" as="geometry" />
        </mxCell>
        <mxCell id="o9g1dTc8fMl-fND39e6S-82" style="edgeStyle=orthogonalEdgeStyle;rounded=0;orthogonalLoop=1;jettySize=auto;html=1;exitX=0.5;exitY=1;exitDx=0;exitDy=0;entryX=1.18;entryY=0.284;entryDx=0;entryDy=0;entryPerimeter=0;labelBackgroundColor=none;strokeColor=#E07A5F;fontColor=default;" edge="1" parent="1" source="o9g1dTc8fMl-fND39e6S-51" target="o9g1dTc8fMl-fND39e6S-86">
          <mxGeometry relative="1" as="geometry">
            <mxPoint x="-85.51999999999998" y="761.8" as="targetPoint" />
          </mxGeometry>
        </mxCell>
        <mxCell id="o9g1dTc8fMl-fND39e6S-84" style="edgeStyle=orthogonalEdgeStyle;rounded=0;orthogonalLoop=1;jettySize=auto;html=1;exitX=0;exitY=0.5;exitDx=0;exitDy=0;entryX=0.113;entryY=0.073;entryDx=0;entryDy=0;entryPerimeter=0;labelBackgroundColor=none;strokeColor=#E07A5F;fontColor=default;" edge="1" parent="1" source="o9g1dTc8fMl-fND39e6S-69" target="o9g1dTc8fMl-fND39e6S-52">
          <mxGeometry relative="1" as="geometry" />
        </mxCell>
        <mxCell id="o9g1dTc8fMl-fND39e6S-90" style="edgeStyle=orthogonalEdgeStyle;rounded=0;orthogonalLoop=1;jettySize=auto;html=1;exitX=0;exitY=0.5;exitDx=0;exitDy=0;entryX=0.5;entryY=0;entryDx=0;entryDy=0;labelBackgroundColor=none;strokeColor=#E07A5F;fontColor=default;" edge="1" parent="1" source="o9g1dTc8fMl-fND39e6S-86" target="o9g1dTc8fMl-fND39e6S-87">
          <mxGeometry relative="1" as="geometry" />
        </mxCell>
        <mxCell id="o9g1dTc8fMl-fND39e6S-86" value="" style="shape=rect;html=1;fillColor=#F2CC8F;verticalLabelPosition=bottom;verticalAlignment=top;flipH=0;flipV=0;direction=north;labelBackgroundColor=none;strokeColor=#E07A5F;fontColor=#393C56;" vertex="1" parent="1">
          <mxGeometry x="-230" y="830" width="480" height="10" as="geometry" />
        </mxCell>
        <mxCell id="o9g1dTc8fMl-fND39e6S-101" style="edgeStyle=orthogonalEdgeStyle;rounded=0;orthogonalLoop=1;jettySize=auto;html=1;exitX=0.5;exitY=1;exitDx=0;exitDy=0;entryX=0.5;entryY=0;entryDx=0;entryDy=0;labelBackgroundColor=none;strokeColor=#E07A5F;fontColor=default;" edge="1" parent="1" source="o9g1dTc8fMl-fND39e6S-87" target="o9g1dTc8fMl-fND39e6S-99">
          <mxGeometry relative="1" as="geometry" />
        </mxCell>
        <mxCell id="o9g1dTc8fMl-fND39e6S-87" value="Logout" style="rounded=1;whiteSpace=wrap;html=1;labelBackgroundColor=none;fillColor=#F2CC8F;strokeColor=#E07A5F;fontColor=#393C56;" vertex="1" parent="1">
          <mxGeometry x="-40" y="870" width="100" height="30" as="geometry" />
        </mxCell>
        <mxCell id="o9g1dTc8fMl-fND39e6S-89" style="edgeStyle=orthogonalEdgeStyle;rounded=0;orthogonalLoop=1;jettySize=auto;html=1;exitX=0.5;exitY=1;exitDx=0;exitDy=0;entryX=1.18;entryY=0.686;entryDx=0;entryDy=0;entryPerimeter=0;labelBackgroundColor=none;strokeColor=#E07A5F;fontColor=default;" edge="1" parent="1" source="o9g1dTc8fMl-fND39e6S-52" target="o9g1dTc8fMl-fND39e6S-86">
          <mxGeometry relative="1" as="geometry" />
        </mxCell>
        <mxCell id="o9g1dTc8fMl-fND39e6S-99" value="" style="ellipse;whiteSpace=wrap;html=1;aspect=fixed;labelBackgroundColor=none;fillColor=#F2CC8F;strokeColor=#E07A5F;fontColor=#393C56;" vertex="1" parent="1">
          <mxGeometry x="10" y="930" width="20" height="20" as="geometry" />
        </mxCell>
        <mxCell id="o9g1dTc8fMl-fND39e6S-103" value="Choose anonymous or Identified" style="rounded=1;whiteSpace=wrap;html=1;labelBackgroundColor=none;fillColor=#F2CC8F;strokeColor=#E07A5F;fontColor=#393C56;" vertex="1" parent="1">
          <mxGeometry x="320" y="710" width="100" height="50" as="geometry" />
        </mxCell>
        <mxCell id="o9g1dTc8fMl-fND39e6S-121" style="edgeStyle=orthogonalEdgeStyle;rounded=0;orthogonalLoop=1;jettySize=auto;html=1;exitX=0.5;exitY=1;exitDx=0;exitDy=0;entryX=0.5;entryY=0;entryDx=0;entryDy=0;labelBackgroundColor=none;strokeColor=#E07A5F;fontColor=default;" edge="1" parent="1" source="o9g1dTc8fMl-fND39e6S-104" target="o9g1dTc8fMl-fND39e6S-108">
          <mxGeometry relative="1" as="geometry" />
        </mxCell>
        <mxCell id="o9g1dTc8fMl-fND39e6S-104" value="Fill details&amp;nbsp;" style="rounded=1;whiteSpace=wrap;html=1;labelBackgroundColor=none;fillColor=#F2CC8F;strokeColor=#E07A5F;fontColor=#393C56;" vertex="1" parent="1">
          <mxGeometry x="335" y="800" width="85" height="30" as="geometry" />
        </mxCell>
        <mxCell id="o9g1dTc8fMl-fND39e6S-194" style="edgeStyle=orthogonalEdgeStyle;rounded=0;orthogonalLoop=1;jettySize=auto;html=1;exitX=0.5;exitY=1;exitDx=0;exitDy=0;labelBackgroundColor=none;strokeColor=#E07A5F;fontColor=default;" edge="1" parent="1">
          <mxGeometry relative="1" as="geometry">
            <mxPoint x="-240" y="65" as="targetPoint" />
            <mxPoint x="355" y="885" as="sourcePoint" />
            <Array as="points">
              <mxPoint x="355" y="975" />
              <mxPoint x="-239" y="975" />
            </Array>
          </mxGeometry>
        </mxCell>
        <mxCell id="o9g1dTc8fMl-fND39e6S-108" value="Submit Report" style="rounded=1;whiteSpace=wrap;html=1;labelBackgroundColor=none;fillColor=#F2CC8F;strokeColor=#E07A5F;fontColor=#393C56;" vertex="1" parent="1">
          <mxGeometry x="330" y="860" width="90" height="30" as="geometry" />
        </mxCell>
        <mxCell id="o9g1dTc8fMl-fND39e6S-109" style="edgeStyle=orthogonalEdgeStyle;rounded=0;orthogonalLoop=1;jettySize=auto;html=1;exitX=0.5;exitY=1;exitDx=0;exitDy=0;entryX=0.411;entryY=-0.06;entryDx=0;entryDy=0;entryPerimeter=0;labelBackgroundColor=none;strokeColor=#E07A5F;fontColor=default;" edge="1" parent="1" source="o9g1dTc8fMl-fND39e6S-103" target="o9g1dTc8fMl-fND39e6S-104">
          <mxGeometry relative="1" as="geometry" />
        </mxCell>
        <mxCell id="o9g1dTc8fMl-fND39e6S-131" value="Return No" style="edgeStyle=orthogonalEdgeStyle;rounded=0;orthogonalLoop=1;jettySize=auto;html=1;exitX=1;exitY=0.5;exitDx=0;exitDy=0;labelBackgroundColor=none;strokeColor=#E07A5F;fontColor=default;" edge="1" parent="1" source="o9g1dTc8fMl-fND39e6S-110">
          <mxGeometry relative="1" as="geometry">
            <mxPoint x="780" y="730" as="targetPoint" />
          </mxGeometry>
        </mxCell>
        <mxCell id="o9g1dTc8fMl-fND39e6S-132" value="Return Yes" style="edgeStyle=orthogonalEdgeStyle;rounded=0;orthogonalLoop=1;jettySize=auto;html=1;exitX=1;exitY=1;exitDx=0;exitDy=0;labelBackgroundColor=none;strokeColor=#E07A5F;fontColor=default;" edge="1" parent="1" source="o9g1dTc8fMl-fND39e6S-110">
          <mxGeometry relative="1" as="geometry">
            <mxPoint x="650" y="770" as="targetPoint" />
          </mxGeometry>
        </mxCell>
        <mxCell id="o9g1dTc8fMl-fND39e6S-110" value="" style="rhombus;whiteSpace=wrap;html=1;labelBackgroundColor=none;fillColor=#F2CC8F;strokeColor=#E07A5F;fontColor=#393C56;" vertex="1" parent="1">
          <mxGeometry x="650" y="530" width="110" height="100" as="geometry" />
        </mxCell>
        <mxCell id="o9g1dTc8fMl-fND39e6S-136" style="edgeStyle=orthogonalEdgeStyle;rounded=0;orthogonalLoop=1;jettySize=auto;html=1;exitX=0.5;exitY=1;exitDx=0;exitDy=0;entryX=0.5;entryY=0;entryDx=0;entryDy=0;labelBackgroundColor=none;strokeColor=#E07A5F;fontColor=default;" edge="1" parent="1" source="o9g1dTc8fMl-fND39e6S-133" target="o9g1dTc8fMl-fND39e6S-134">
          <mxGeometry relative="1" as="geometry" />
        </mxCell>
        <mxCell id="o9g1dTc8fMl-fND39e6S-133" value="Log Out" style="rounded=1;whiteSpace=wrap;html=1;labelBackgroundColor=none;fillColor=#F2CC8F;strokeColor=#E07A5F;fontColor=#393C56;" vertex="1" parent="1">
          <mxGeometry x="740" y="730" width="100" height="30" as="geometry" />
        </mxCell>
        <mxCell id="o9g1dTc8fMl-fND39e6S-134" value="" style="ellipse;whiteSpace=wrap;html=1;aspect=fixed;labelBackgroundColor=none;fillColor=#F2CC8F;strokeColor=#E07A5F;fontColor=#393C56;" vertex="1" parent="1">
          <mxGeometry x="780" y="790" width="20" height="20" as="geometry" />
        </mxCell>
        <mxCell id="o9g1dTc8fMl-fND39e6S-137" value="Homepage" style="rounded=1;whiteSpace=wrap;html=1;labelBackgroundColor=none;fillColor=#F2CC8F;strokeColor=#E07A5F;fontColor=#393C56;" vertex="1" parent="1">
          <mxGeometry x="610" y="770" width="100" height="30" as="geometry" />
        </mxCell>
        <mxCell id="o9g1dTc8fMl-fND39e6S-138" value="User" style="text;html=1;align=center;verticalAlign=middle;whiteSpace=wrap;rounded=0;labelBackgroundColor=none;fontColor=#393C56;" vertex="1" parent="1">
          <mxGeometry x="65" y="-30" width="60" height="30" as="geometry" />
        </mxCell>
        <mxCell id="o9g1dTc8fMl-fND39e6S-139" value="Admin" style="text;html=1;align=center;verticalAlign=middle;whiteSpace=wrap;rounded=0;labelBackgroundColor=none;fontColor=#393C56;" vertex="1" parent="1">
          <mxGeometry x="-380" y="-30" width="60" height="30" as="geometry" />
        </mxCell>
        <mxCell id="o9g1dTc8fMl-fND39e6S-177" style="edgeStyle=orthogonalEdgeStyle;rounded=0;orthogonalLoop=1;jettySize=auto;html=1;exitX=0.5;exitY=1;exitDx=0;exitDy=0;entryX=0.5;entryY=0;entryDx=0;entryDy=0;labelBackgroundColor=none;strokeColor=#E07A5F;fontColor=default;" edge="1" parent="1" source="o9g1dTc8fMl-fND39e6S-140" target="o9g1dTc8fMl-fND39e6S-141">
          <mxGeometry relative="1" as="geometry" />
        </mxCell>
        <mxCell id="o9g1dTc8fMl-fND39e6S-140" value="Received notification" style="rounded=1;whiteSpace=wrap;html=1;labelBackgroundColor=none;fillColor=#F2CC8F;strokeColor=#E07A5F;fontColor=#393C56;" vertex="1" parent="1">
          <mxGeometry x="-425" y="30" width="180" height="50" as="geometry" />
        </mxCell>
        <mxCell id="o9g1dTc8fMl-fND39e6S-141" value="" style="rhombus;whiteSpace=wrap;html=1;labelBackgroundColor=none;fillColor=#F2CC8F;strokeColor=#E07A5F;fontColor=#393C56;" vertex="1" parent="1">
          <mxGeometry x="-460" y="200" width="60" height="60" as="geometry" />
        </mxCell>
        <mxCell id="o9g1dTc8fMl-fND39e6S-175" style="edgeStyle=orthogonalEdgeStyle;rounded=0;orthogonalLoop=1;jettySize=auto;html=1;exitX=0.5;exitY=1;exitDx=0;exitDy=0;entryX=0.5;entryY=0;entryDx=0;entryDy=0;labelBackgroundColor=none;strokeColor=#E07A5F;fontColor=default;" edge="1" parent="1" source="o9g1dTc8fMl-fND39e6S-146" target="o9g1dTc8fMl-fND39e6S-170">
          <mxGeometry relative="1" as="geometry" />
        </mxCell>
        <mxCell id="o9g1dTc8fMl-fND39e6S-146" value="View" style="rounded=1;whiteSpace=wrap;html=1;labelBackgroundColor=none;fillColor=#F2CC8F;strokeColor=#E07A5F;fontColor=#393C56;" vertex="1" parent="1">
          <mxGeometry x="-600" y="290" width="120" height="30" as="geometry" />
        </mxCell>
        <mxCell id="o9g1dTc8fMl-fND39e6S-147" value="Review Details" style="rounded=1;whiteSpace=wrap;html=1;labelBackgroundColor=none;fillColor=#F2CC8F;strokeColor=#E07A5F;fontColor=#393C56;" vertex="1" parent="1">
          <mxGeometry x="-370" y="290" width="100" height="30" as="geometry" />
        </mxCell>
        <mxCell id="o9g1dTc8fMl-fND39e6S-161" style="edgeStyle=orthogonalEdgeStyle;rounded=0;orthogonalLoop=1;jettySize=auto;html=1;exitX=0.5;exitY=1;exitDx=0;exitDy=0;entryX=0.5;entryY=0;entryDx=0;entryDy=0;labelBackgroundColor=none;strokeColor=#E07A5F;fontColor=default;" edge="1" parent="1" source="o9g1dTc8fMl-fND39e6S-150" target="o9g1dTc8fMl-fND39e6S-151">
          <mxGeometry relative="1" as="geometry" />
        </mxCell>
        <mxCell id="o9g1dTc8fMl-fND39e6S-150" value="Track Real Time location" style="rounded=1;whiteSpace=wrap;html=1;labelBackgroundColor=none;fillColor=#F2CC8F;strokeColor=#E07A5F;fontColor=#393C56;" vertex="1" parent="1">
          <mxGeometry x="-360" y="370" width="100" height="40" as="geometry" />
        </mxCell>
        <mxCell id="o9g1dTc8fMl-fND39e6S-162" style="edgeStyle=orthogonalEdgeStyle;rounded=0;orthogonalLoop=1;jettySize=auto;html=1;exitX=0.5;exitY=1;exitDx=0;exitDy=0;entryX=0.5;entryY=0;entryDx=0;entryDy=0;labelBackgroundColor=none;strokeColor=#E07A5F;fontColor=default;" edge="1" parent="1" source="o9g1dTc8fMl-fND39e6S-151" target="o9g1dTc8fMl-fND39e6S-152">
          <mxGeometry relative="1" as="geometry" />
        </mxCell>
        <mxCell id="o9g1dTc8fMl-fND39e6S-151" value="Call user" style="rounded=1;whiteSpace=wrap;html=1;labelBackgroundColor=none;fillColor=#F2CC8F;strokeColor=#E07A5F;fontColor=#393C56;" vertex="1" parent="1">
          <mxGeometry x="-360" y="450" width="100" height="30" as="geometry" />
        </mxCell>
        <mxCell id="o9g1dTc8fMl-fND39e6S-169" style="edgeStyle=orthogonalEdgeStyle;rounded=0;orthogonalLoop=1;jettySize=auto;html=1;exitX=0.5;exitY=1;exitDx=0;exitDy=0;entryX=0.5;entryY=0;entryDx=0;entryDy=0;labelBackgroundColor=none;strokeColor=#E07A5F;fontColor=default;" edge="1" parent="1" source="o9g1dTc8fMl-fND39e6S-152" target="o9g1dTc8fMl-fND39e6S-163">
          <mxGeometry relative="1" as="geometry" />
        </mxCell>
        <mxCell id="o9g1dTc8fMl-fND39e6S-152" value="Dispatch Help" style="rounded=1;whiteSpace=wrap;html=1;labelBackgroundColor=none;fillColor=#F2CC8F;strokeColor=#E07A5F;fontColor=#393C56;" vertex="1" parent="1">
          <mxGeometry x="-360" y="520" width="100" height="30" as="geometry" />
        </mxCell>
        <mxCell id="o9g1dTc8fMl-fND39e6S-157" value="Emergency" style="edgeStyle=orthogonalEdgeStyle;rounded=0;orthogonalLoop=1;jettySize=auto;html=1;exitX=1;exitY=0.5;exitDx=0;exitDy=0;entryX=0.388;entryY=-0.033;entryDx=0;entryDy=0;entryPerimeter=0;labelBackgroundColor=none;strokeColor=#E07A5F;fontColor=default;" edge="1" parent="1" source="o9g1dTc8fMl-fND39e6S-141" target="o9g1dTc8fMl-fND39e6S-147">
          <mxGeometry relative="1" as="geometry" />
        </mxCell>
        <mxCell id="o9g1dTc8fMl-fND39e6S-158" style="edgeStyle=orthogonalEdgeStyle;rounded=0;orthogonalLoop=1;jettySize=auto;html=1;exitX=0;exitY=0.5;exitDx=0;exitDy=0;entryX=0.387;entryY=-0.113;entryDx=0;entryDy=0;entryPerimeter=0;labelBackgroundColor=none;strokeColor=#E07A5F;fontColor=default;" edge="1" parent="1" source="o9g1dTc8fMl-fND39e6S-141" target="o9g1dTc8fMl-fND39e6S-146">
          <mxGeometry relative="1" as="geometry" />
        </mxCell>
        <mxCell id="o9g1dTc8fMl-fND39e6S-159" value="Not Emergency" style="edgeLabel;html=1;align=center;verticalAlign=middle;resizable=0;points=[];labelBackgroundColor=none;fontColor=#393C56;" vertex="1" connectable="0" parent="o9g1dTc8fMl-fND39e6S-158">
          <mxGeometry x="-0.2198" relative="1" as="geometry">
            <mxPoint as="offset" />
          </mxGeometry>
        </mxCell>
        <mxCell id="o9g1dTc8fMl-fND39e6S-160" style="edgeStyle=orthogonalEdgeStyle;rounded=0;orthogonalLoop=1;jettySize=auto;html=1;exitX=0.5;exitY=1;exitDx=0;exitDy=0;entryX=0.408;entryY=-0.025;entryDx=0;entryDy=0;entryPerimeter=0;labelBackgroundColor=none;strokeColor=#E07A5F;fontColor=default;" edge="1" parent="1" source="o9g1dTc8fMl-fND39e6S-147" target="o9g1dTc8fMl-fND39e6S-150">
          <mxGeometry relative="1" as="geometry" />
        </mxCell>
        <mxCell id="o9g1dTc8fMl-fND39e6S-163" value="" style="ellipse;whiteSpace=wrap;html=1;aspect=fixed;labelBackgroundColor=none;fillColor=#F2CC8F;strokeColor=#E07A5F;fontColor=#393C56;" vertex="1" parent="1">
          <mxGeometry x="-320" y="590" width="20" height="20" as="geometry" />
        </mxCell>
        <mxCell id="o9g1dTc8fMl-fND39e6S-174" style="edgeStyle=orthogonalEdgeStyle;rounded=0;orthogonalLoop=1;jettySize=auto;html=1;exitX=0.5;exitY=1;exitDx=0;exitDy=0;entryX=0.5;entryY=0;entryDx=0;entryDy=0;labelBackgroundColor=none;strokeColor=#E07A5F;fontColor=default;" edge="1" parent="1" source="o9g1dTc8fMl-fND39e6S-170" target="o9g1dTc8fMl-fND39e6S-171">
          <mxGeometry relative="1" as="geometry" />
        </mxCell>
        <mxCell id="o9g1dTc8fMl-fND39e6S-170" value="verify and response" style="rounded=1;whiteSpace=wrap;html=1;labelBackgroundColor=none;fillColor=#F2CC8F;strokeColor=#E07A5F;fontColor=#393C56;" vertex="1" parent="1">
          <mxGeometry x="-600" y="360" width="120" height="30" as="geometry" />
        </mxCell>
        <mxCell id="o9g1dTc8fMl-fND39e6S-173" style="edgeStyle=orthogonalEdgeStyle;rounded=0;orthogonalLoop=1;jettySize=auto;html=1;exitX=0.5;exitY=1;exitDx=0;exitDy=0;entryX=0.5;entryY=0;entryDx=0;entryDy=0;labelBackgroundColor=none;strokeColor=#E07A5F;fontColor=default;" edge="1" parent="1" source="o9g1dTc8fMl-fND39e6S-171" target="o9g1dTc8fMl-fND39e6S-172">
          <mxGeometry relative="1" as="geometry" />
        </mxCell>
        <mxCell id="o9g1dTc8fMl-fND39e6S-171" value="update System" style="rounded=1;whiteSpace=wrap;html=1;labelBackgroundColor=none;fillColor=#F2CC8F;strokeColor=#E07A5F;fontColor=#393C56;" vertex="1" parent="1">
          <mxGeometry x="-600" y="430" width="120" height="30" as="geometry" />
        </mxCell>
        <mxCell id="o9g1dTc8fMl-fND39e6S-172" value="" style="ellipse;whiteSpace=wrap;html=1;aspect=fixed;labelBackgroundColor=none;fillColor=#F2CC8F;strokeColor=#E07A5F;fontColor=#393C56;" vertex="1" parent="1">
          <mxGeometry x="-550" y="510" width="20" height="20" as="geometry" />
        </mxCell>
        <mxCell id="o9g1dTc8fMl-fND39e6S-197" value="" style="html=1;labelBackgroundColor=none;jettySize=auto;orthogonalLoop=1;fontSize=14;rounded=0;jumpStyle=gap;edgeStyle=orthogonalEdgeStyle;startArrow=oval;endArrow=block;strokeWidth=2;startFill=1;endFill=1;sourcePerimeterSpacing=3;targetPerimeterSpacing=3;exitX=1;exitY=0.068;exitDx=0;exitDy=0;exitPerimeter=0;entryX=1;entryY=0.5;entryDx=0;entryDy=0;strokeColor=#E07A5F;fontColor=default;" edge="1" parent="1" source="o9g1dTc8fMl-fND39e6S-69" target="o9g1dTc8fMl-fND39e6S-140">
          <mxGeometry width="48" height="48" relative="1" as="geometry">
            <mxPoint x="-160" y="519.5" as="sourcePoint" />
            <mxPoint x="-112" y="140" as="targetPoint" />
          </mxGeometry>
        </mxCell>
        <mxCell id="o9g1dTc8fMl-fND39e6S-205" value="" style="verticalLabelPosition=bottom;shadow=0;dashed=0;align=center;html=1;verticalAlign=top;strokeWidth=1;shape=mxgraph.mockup.markup.line;strokeColor=#A50040;fontColor=#ffffff;fillColor=#d80073;direction=south;" vertex="1" parent="1">
          <mxGeometry x="-220" y="-190" width="20" height="1540" as="geometry" />
        </mxCell>
      </root>
    </mxGraphModel>
  </diagram>
</mxfile>
